<svg xmlns="http://www.w3.org/2000/svg" width="200" height="" viewBox="0 0 284.003 68.954"><defs><style>.a{fill:#fff;}.b{fill:#dda146;}</style></defs><g transform="translate(142.001 34.477)"><g transform="translate(-142.001 -34.477)"><path class="a" d="M4.8,4.8V50.935A5.457,5.457,0,0,0,7.156,54.9a6.077,6.077,0,0,0,3.473.868h2.232l6.821-.868h2.356a15.378,15.378,0,0,1,4.217.5,8.681,8.681,0,0,1,4.589,3.1h0a8.681,8.681,0,0,1,4.589-3.1,15.379,15.379,0,0,1,4.217-.5h2.356l6.821.868h2.232a6.077,6.077,0,0,0,3.473-.868,5.457,5.457,0,0,0,2.728-3.969V4.8ZM30.348,55.9a10.418,10.418,0,0,0-3.6-1.86,16.618,16.618,0,0,0-4.589-.62h-2.48l-3.845.5-3.1.372H10.629a4.837,4.837,0,0,1-2.728-.62,4.217,4.217,0,0,1-1.86-3.1q0-.186,0-.372V31.712H30.348Zm0-25.424H6.04V6.04H30.348ZM56.02,50.439v.372a4.217,4.217,0,0,1-1.86,3.1,4.837,4.837,0,0,1-2.728.62H49.323l-3.1-.372-3.845-.5H39.9a16.618,16.618,0,0,0-4.589.62,10.294,10.294,0,0,0-3.6,1.612V31.712H56.02Zm0-19.967H31.712V6.04H56.02Z" transform="translate(1.153 1.153)"/><path class="a" d="M30.108,26.5V50.684a10.418,10.418,0,0,0-3.6-1.86,16.618,16.618,0,0,0-4.589-.62h-2.48l-3.845.5-3.1.372H10.389a4.837,4.837,0,0,1-2.728-.62,4.217,4.217,0,0,1-1.86-3.1q0-.186,0-.372V26.5Z" transform="translate(1.393 6.365)"/><rect class="a" width="24.308" height="24.382" transform="translate(32.865 7.193)"/><path class="a" d="M18.037,21.927a4.837,4.837,0,0,0,3.845-1.736L24.114,22.3a7.689,7.689,0,0,1-6.2,2.728,7.813,7.813,0,0,1,0-15.626,7.813,7.813,0,0,1,6.2,2.728l-2.232,2.108A4.837,4.837,0,0,0,18.037,12.5,4.589,4.589,0,0,0,13.2,17.338a4.589,4.589,0,0,0,4.837,4.589Z" transform="translate(2.426 2.257)"/><path class="a" d="M37.377,44.8A10.79,10.79,0,0,1,31.3,43.066l1.24-2.6A8.805,8.805,0,0,0,37.5,42.074c2.108,0,2.852-.744,2.852-1.612,0-2.852-8.805-.868-8.805-6.449,0-2.6,2.108-4.713,6.325-4.713a10.045,10.045,0,0,1,5.209,1.364l-.992,2.48a8.557,8.557,0,0,0-4.217-1.24c-2.108,0-2.852.744-2.852,1.736s8.805.868,8.805,6.449C43.7,42.57,41.718,44.8,37.377,44.8Z" transform="translate(7.518 7.037)"/><rect class="a" width="4.465" height="32.865" transform="translate(59.901 13.766)"/><path class="a" d="M64.366,0V9.673H59.9V4.465H4.465V9.673H0V0Z"/><rect class="a" width="4.465" height="32.865" transform="translate(0 13.766)"/><path class="a" d="M59.9,40.872v.992a6.821,6.821,0,0,1-6.7,6.945H48.615l-1.488-.62a36.959,36.959,0,0,0-6.077-.62H36.958l-1.364.62-.5.248-.992.744-.248.248-.5.62-.248.248-.372.62v.868l-.248.868-.248-.868v-.868l-.372-.62-.248-.248-.5-.62-.248-.248-.992-.744-.5-.248-1.364-.62H23.44a36.957,36.957,0,0,0-6.077.62l-1.488.248H11.162a6.821,6.821,0,0,1-6.7-6.945V40.5H0v1.736c0,6.7,2.852,11.658,11.038,11.658a45.638,45.638,0,0,0,6.573-.62,45.02,45.02,0,0,1,6.573-.62,6.325,6.325,0,0,1,3.969,1.116c1.24.868,2.108,2.6,2.108,5.457h3.969c0-2.852.868-4.465,2.108-5.457a6.325,6.325,0,0,1,3.969-1.116,45.02,45.02,0,0,1,6.573.62,45.638,45.638,0,0,0,6.573.62c8.185,0,11.038-4.961,11.038-11.658V40.872Z" transform="translate(0 9.728)"/><path class="b" d="M46.652,23.1v2.852H43.8Z" transform="translate(10.52 5.548)"/><path class="b" d="M25.712,43.8v2.728L24.1,45.412Z" transform="translate(5.789 10.52)"/><path class="b" d="M47.925,17.8v4.341l-5.085,5.085H38.5Z" transform="translate(9.247 4.275)"/><path class="b" d="M26.721,38.5v4.341L23.5,46.065H23l-3.1-.744Z" transform="translate(4.78 9.247)"/><path class="b" d="M49.2,12.5v4.341L37.541,28.5H33.2Z" transform="translate(7.974 3.002)"/><path class="b" d="M28.066,33.2v4.341l-9.053,9.053H17.4l-3.1.372Z" transform="translate(3.435 7.974)"/><path class="b" d="M50.471,7.2v4.341L32.241,29.771H27.9Z" transform="translate(6.701 1.729)"/><path class="b" d="M29.459,27.9v4.341L13.089,48.735H8.5Z" transform="translate(2.042 6.701)"/><path class="b" d="M50.436,5.8,26.5,29.736V25.395L46.095,5.8Z" transform="translate(6.365 1.393)"/><path class="b" d="M29.736,26.5,7.536,48.575a4.217,4.217,0,0,1-1.736-2.6L25.395,26.5Z" transform="translate(1.393 6.365)"/><path class="b" d="M43.863,5.8,26.5,23.163V18.822L39.522,5.8Z" transform="translate(6.365 1.393)"/><path class="b" d="M23.163,26.5,5.8,43.863V39.522L18.822,26.5Z" transform="translate(1.393 6.365)"/><path class="b" d="M37.29,5.8,26.5,16.59V12.249L32.949,5.8Z" transform="translate(6.365 1.393)"/><path class="b" d="M16.59,26.5,5.8,37.29V32.949L12.249,26.5Z" transform="translate(1.393 6.365)"/><path class="b" d="M30.717,5.8,26.5,10.017V5.8Z" transform="translate(6.365 1.393)"/><path class="b" d="M10.017,26.5,5.8,30.717V26.5Z" transform="translate(1.393 6.365)"/><g transform="translate(81.48 10.407)"><path class="a" d="M66.8,19.564C66.8,12.991,71.761,8.4,78.582,8.4a11.162,11.162,0,0,1,8.929,3.845l-3.224,2.976a6.945,6.945,0,0,0-5.457-2.48,6.573,6.573,0,0,0-6.945,6.945,6.573,6.573,0,0,0,6.945,6.945,6.945,6.945,0,0,0,5.457-2.6L87.511,27a11.162,11.162,0,0,1-8.929,3.845C71.761,30.725,66.8,26.013,66.8,19.564Z" transform="translate(-65.436 -8.391)"/><path class="a" d="M84.7,19.562C84.7,13.113,89.661,8.4,96.482,8.4s11.782,4.713,11.782,11.162-5.085,11.162-11.782,11.162S84.7,25.887,84.7,19.562Zm18.6,0a6.821,6.821,0,1,0-13.518,0,6.821,6.821,0,1,0,13.518,0Z" transform="translate(-61.136 -8.389)"/><path class="a" d="M106.8,8.6h9.8c7.069,0,11.906,4.217,11.906,10.79s-4.837,10.79-11.906,10.79h-9.8Zm9.549,17.487c4.341,0,7.069-2.6,7.069-6.7s-2.728-6.573-7.069-6.573h-4.589V26.211Z" transform="translate(-55.828 -8.341)"/><path class="a" d="M144.143,26.211v3.969H127.4V8.6h16.37v3.969h-11.41v4.713h10.046v3.845H132.361v4.961Z" transform="translate(-50.88 -8.341)"/><path class="a" d="M143.8,28.244l1.736-3.721a12.774,12.774,0,0,0,7.193,2.232c2.976,0,4.217-.992,4.217-2.356,0-4.093-12.526-1.24-12.526-9.3,0-3.721,2.976-6.7,9.053-6.7a14.51,14.51,0,0,1,7.565,1.86l-1.488,3.845A12.154,12.154,0,0,0,153.6,12.37c-2.976,0-4.093,1.116-4.093,2.48,0,3.969,12.526,1.24,12.526,9.177,0,3.6-2.976,6.7-9.177,6.7a15.378,15.378,0,0,1-9.053-2.48Z" transform="translate(-46.941 -8.39)"/><path class="a" d="M165.745,12.693H158.8V8.6h18.851v4.093h-6.945V30.3h-4.961Z" transform="translate(-43.339 -8.341)"/><path class="a" d="M190.115,25.591H180.069l-1.86,4.589H173L182.673,8.6h4.961l9.673,21.579H192.1ZM188.5,21.746l-3.473-8.309-3.349,8.433Z" transform="translate(-39.928 -8.341)"/><path class="a" d="M193,19.564C193,12.991,197.961,8.4,204.782,8.4a11.162,11.162,0,0,1,8.929,3.845l-3.224,2.976a6.945,6.945,0,0,0-5.457-2.48,6.573,6.573,0,0,0-6.945,6.945,6.573,6.573,0,0,0,6.945,6.945,6.945,6.945,0,0,0,5.457-2.6L213.711,27a11.162,11.162,0,0,1-8.929,3.845C197.961,30.725,193,26.013,193,19.564Z" transform="translate(-35.124 -8.391)"/><path class="a" d="M220.213,21.746l-2.852,2.976v5.457H212.4V8.6h4.961V18.646L226.91,8.6h5.581l-8.929,9.673,9.425,12.03h-5.829Z" transform="translate(-30.464 -8.341)"/><path class="b" d="M79.342,46.742H71.281l-1.488,3.721H65.7L73.513,33.1h3.969l7.813,17.363H80.954Zm-1.24-3.1-2.728-6.7-2.728,6.7Z" transform="translate(-65.7 -2.457)"/><path class="b" d="M81.8,41.855c0-5.209,3.969-9.053,9.425-9.053a8.929,8.929,0,0,1,7.193,3.1l-2.6,2.356a5.643,5.643,0,1,0,0,7.069l2.6,2.356a8.929,8.929,0,0,1-7.193,3.1C85.769,50.909,81.8,47.064,81.8,41.855Z" transform="translate(-61.833 -2.531)"/><path class="b" d="M108.966,46.742H100.9l-1.488,3.721H95.2L103.013,33.1h3.969l7.813,17.363h-4.217Zm-1.24-3.1-2.852-6.573-2.728,6.7Z" transform="translate(-58.614 -2.457)"/><path class="b" d="M112.4,33.1h7.937c5.7,0,9.549,3.473,9.549,8.681s-3.845,8.681-9.549,8.681H112.4Zm7.689,14.138c3.473,0,5.7-2.108,5.7-5.457s-2.232-5.333-5.7-5.333h-3.721v10.79Z" transform="translate(-54.483 -2.457)"/><path class="b" d="M142.394,47.238v3.224H129V33.1h13.146v3.224h-9.177v3.721h8.061v3.1h-8.061v3.969Z" transform="translate(-50.496 -2.457)"/><path class="b" d="M158.274,50.487V40.069l-5.209,8.557h-1.86l-5.085-8.433v10.17H142.4V33h3.348l6.573,10.79L158.77,33h3.348V50.363Z" transform="translate(-47.278 -2.481)"/><path class="b" d="M170.39,44.262v6.2H166.3v-6.2L159.6,33.1h4.217l4.589,7.689,4.589-7.689h3.969Z" transform="translate(-43.146 -2.457)"/></g></g></g></svg>